#!OML:ASF I:\Actors\actors\Patient Classification 1\Patient 1\Session 1\Subject1.ASF
:FULLY-SPECIFIED
:DEGREES
397
root -0.974473 17.6088 7.26489 10.506 9.93893 -7.8598
lowerback 9.79945 -4.73072 3.70523
upperback -7.69123 -5.35381 3.92285
thorax -13.977 -2.62278 3.44844
lowerneck -9.80397 0.0975555 2.00469
upperneck 27.7031 1.23813 -5.60042
head 10.5092 0.114697 -2.20803
rclavicle 2.09143e-014 2.5842e-015
rhumerus -36.1637 7.3831 -68.2318
rradius 97.2763
rwrist 8.58303
rhand -24.1221 -37.6141
rfingers 7.12502
rthumb 2.35943 -67.5808
lclavicle 2.09143e-014 2.5842e-015
lhumerus 7.09289 -66.3712 97.3725
lradius 81.8083
lwrist 59.367
lhand -43.4282 -31.4346
lfingers 7.12502
lthumb -16.2707 -2.09733
rfemur -4.00072 23.9743 28.6235
rtibia -0.229131
rfoot -17.4681 -36.0544
rtoes 20.0088
lfemur -12.0611 -24.6146 -2.64239
ltibia 4.76128
lfoot -6.38333 27.5781
ltoes -12.9076
398
root -0.932875 17.61 7.28771 10.6506 9.65602 -7.74283
lowerback 9.81575 -4.32008 3.8523
upperback -7.64156 -4.78881 3.76458
thorax -13.9656 -2.38079 3.06532
lowerneck -10.0362 -0.128765 1.73697
upperneck 27.9176 1.04092 -5.79293
head 10.6267 -0.0286257 -2.26025
rclavicle -3.08574e-014 -1.44119e-014
rhumerus -36.0492 5.91521 -72.0925
rradius 96.9943
rwrist 4.08144
rhand -23.2476 -39.2227
rfingers 7.12502
rthumb 3.20399 -69.1784
lclavicle -3.08574e-014 -1.44119e-014
lhumerus 5.91275 -65.218 96.387
lradius 81.3595
lwrist 58.6786
lhand -43.24 -29.5863
lfingers 7.12502
lthumb -16.0895 -0.234268
rfemur -3.9441 24.6011 28.3318
rtibia -0.327472
rfoot -17.6231 -36.3345
rtoes 20.1947
lfemur -12.0655 -24.2839 -2.98319
ltibia 4.89823
lfoot -6.39976 27.4989
ltoes -12.614
399
root -0.890942 17.6111 7.31135 10.8243 9.2662 -7.58053
lowerback 9.79021 -3.85334 4.02975
upperback -7.58356 -4.14779 3.58976
thorax -13.9153 -2.10772 2.62518
lowerneck -10.2963 -0.34195 1.46516
upperneck 28.1467 0.895632 -6.08414
head 10.7591 -0.160797 -2.34322
rclavicle -1.04624e-014 -3.57812e-015
rhumerus -35.732 4.61606 -76.1303
rradius 96.702
rwrist -0.416196
rhand -22.3334 -41.0767
rfingers 7.12502
rthumb 4.08684 -71.0172
lclavicle -1.04624e-014 -3.57812e-015
lhumerus 4.83663 -63.8183 95.0262
lradius 80.9405
lwrist 57.9133
lhand -43.0126 -26.7813
lfingers 7.12502
lthumb -15.8705 2.58829
rfemur -3.91074 25.2507 27.9629
rtibia -0.438683
rfoot -17.7286 -36.5344
rtoes 20.3417
lfemur -11.991 -24.0294 -3.39017
ltibia 4.93893
lfoot -6.44438 27.6234
ltoes -12.2913
400
root -0.848572 17.6125 7.33555 11.0259 8.71908 -7.40781
lowerback 9.73778 -3.32136 4.24941
upperback -7.51594 -3.41533 3.40368
thorax -13.8312 -1.79638 2.12676
lowerneck -10.5598 -0.526959 1.21996
upperneck 28.3541 0.812531 -6.46096
head 10.8886 -0.272035 -2.45553
rclavicle -2.42162e-015 1.05853e-014
rhumerus -35.1831 3.65795 -80.2474
rradius 96.3081
rwrist -4.4043
rhand -21.3874 -42.6198
rfingers 7.12502
rthumb 5.00031 -72.5408
lclavicle -2.42162e-015 1.05853e-014
lhumerus 3.94885 -62.2346 93.2442
lradius 80.579
lwrist 56.8691
lhand -42.7195 -22.943
lfingers 7.12502
lthumb -15.5883 6.44887
rfemur -3.9361 25.866 27.5411
rtibia -0.527272
rfoot -17.7158 -36.5622
rtoes 20.3711
lfemur -11.803 -23.8635 -3.83394
ltibia 4.84464
lfoot -6.51184 28.0057
ltoes -11.8607
401
root -0.806316 17.6148 7.3604 11.2733 8.00434 -7.22186
lowerback 9.65746 -2.72838 4.48842
upperback -7.44773 -2.60219 3.19828
thorax -13.718 -1.44955 1.57842
lowerneck -10.8002 -0.672022 1.03011
upperneck 28.5144 0.790087 -6.88765
head 10.9997 -0.355247 -2.58829
rclavicle 1.82796e-014 4.54968e-014
rhumerus -34.403 3.22478 -84.361
rradius 95.7156
rwrist -7.63147
rhand -20.1861 -43.8502
rfingers 7.12502
rthumb 6.16016 -73.7407
lclavicle 1.82796e-014 4.54968e-014
lhumerus 3.29539 -60.5771 91.0276
lradius 80.296
lwrist 55.3747
lhand -42.2652 -18.538
lfingers 7.12502
lthumb -15.1506 10.8874
rfemur -4.06829 26.425 27.0445
rtibia -0.564842
rfoot -17.5683 -36.3939
rtoes 20.2869
lfemur -11.5254 -23.8062 -4.30658
ltibia 4.61534
lfoot -6.62311 28.6686
ltoes -11.2127
402
root -0.765224 17.6185 7.3853 11.5694 7.08753 -7.02934
lowerback 9.57109 -2.07403 4.71006
upperback -7.38413 -1.71291 2.96888
thorax -13.5901 -1.06557 0.999886
lowerneck -11.0026 -0.767672 0.921587
upperneck 28.6175 0.82394 -7.33031
head 11.0848 -0.405168 -2.73323
rclavicle 1.2196e-014 -1.19271e-014
rhumerus -33.4158 3.48999 -88.3965
rradius 94.872
rwrist -10.228
rhand -18.618 -44.6334
rfingers 7.12502
rthumb 7.67387 -74.4741
lclavicle 1.2196e-014 -1.19271e-014
lhumerus 2.91431 -58.9432 88.3745
lradius 80.0817
lwrist 53.2414
lhand -41.6846 -14.1639
lfingers 7.12502
lthumb -14.5913 15.3029
rfemur -4.34997 26.87 26.4661
rtibia -0.513437
rfoot -17.2327 -35.957
rtoes 20.02
lfemur -11.159 -23.8607 -4.80337
ltibia 4.25528
lfoot -6.81337 29.6394
ltoes -10.2475
403
root -0.72614 17.6241 7.40968 11.8859 5.93011 -6.84738
lowerback 9.52372 -1.3599 4.8762
upperback -7.32099 -0.752218 2.71843
thorax -13.4673 -0.642579 0.419533
lowerneck -11.1746 -0.806623 0.899211
upperneck 28.6846 0.907565 -7.73634
head 11.1527 -0.418283 -2.87288
rclavicle 2.0052e-014 -3.59303e-014
rhumerus -32.2633 4.57319 -92.2662
rradius 93.7598
rwrist -12.5778
rhand -16.8297 -45.0813
rfingers 7.12502
rthumb 9.39966 -74.8517
lclavicle 2.0052e-014 -3.59303e-014
lhumerus 2.82315 -57.4198 85.3089
lradius 79.9195
lwrist 50.4519
lhand -41.0625 -10.4334
lfingers 7.12502
lthumb -13.9918 19.0757
rfemur -4.77312 27.1353 25.8332
rtibia -0.352084
rfoot -16.6548 -35.1656
rtoes 19.462
lfemur -10.6636 -24.0042 -5.33349
ltibia 3.76863
lfoot -7.11408 30.918
ltoes -8.93921
